<?xml version="1.0" encoding="utf-8"?>
<!-- Generator: Adobe Illustrator 26.5.0, SVG Export Plug-In . SVG Version: 6.00 Build 0)  -->
<svg version="1.1" id="Layer_1" xmlns="http://www.w3.org/2000/svg" xmlns:xlink="http://www.w3.org/1999/xlink" x="0px" y="0px"
	 viewBox="0 0 455.5 227.7" style="enable-background:new 0 0 455.5 227.7;" xml:space="preserve">
<style type="text/css">
	.st0{fill:#F8C110;}
	.st1{fill:url(#path3745_00000013876074252114164410000007389951460672792766_);}
	.st2{fill:url(#path3765_00000120529457072612399210000012487182421726690220_);}
	.st3{fill:url(#path3787_00000112597157295743712090000005970114780099572152_);}
	.st4{fill:url(#path3807_00000155843558704188146000000013041991068987016334_);}
	.st5{fill:url(#path3827_00000081649547719782217720000009954054383857982848_);}
	.st6{fill:#FFFFFF;}
	.st7{fill:url(#path3859_00000006672420457756045490000016020024292772473023_);}
	.st8{fill:url(#path3891_00000104703897162551433900000005788916715915406464_);}
</style>
<g>
	<g id="g3727_1_" transform="translate(-48.348348,-103.003)">
		<g id="g3729_1_">
			<g id="g3735_1_">
				<g id="g3737_1_">
					
						<linearGradient id="path3745_00000088813619408116350770000003508648974804807834_" gradientUnits="userSpaceOnUse" x1="-155.8477" y1="578.0931" x2="-154.7224" y2="578.0931" gradientTransform="matrix(0 -61.5246 61.5246 0 -35421.2891 -9323.4766)">
						<stop  offset="0" style="stop-color:#000000"/>
						<stop  offset="1" style="stop-color:#7F7F7F"/>
					</linearGradient>
					<path id="path3745_1_" style="fill:url(#path3745_00000088813619408116350770000003508648974804807834_);" d="M177.6,196
						c-16.6,35-24.2,52.5-31.9,52.5l0,0c-7.7,0-15.3-17.5-31.9-52.5l0,0l-0.6-1.2c-2.3,6.4-3.6,13.6-3.6,21.2l0,0
						c0,26.8,16.2,48.6,36.1,48.6l0,0c19.9,0,36.1-21.8,36.1-48.6l0,0c0-7.6-1.3-14.8-3.6-21.2l0,0L177.6,196z"/>
				</g>
			</g>
		</g>
	</g>
	<g id="g3747_1_" transform="translate(-48.348348,-103.003)">
		<g id="g3749_1_">
			<g id="g3755_1_">
				<g id="g3757_1_">
					
						<radialGradient id="path3765_00000134927967761637600980000017991943498296409251_" cx="-125.5805" cy="613.7102" r="1.1253" gradientTransform="matrix(10.9055 0 0 10.9055 1518.2103 -6515.0063)" gradientUnits="userSpaceOnUse">
						<stop  offset="0" style="stop-color:#FFCB03"/>
						<stop  offset="1" style="stop-color:#EB671B"/>
					</radialGradient>
					<path id="path3765_1_" style="fill:url(#path3765_00000134927967761637600980000017991943498296409251_);" d="M131.6,187.4
						c0,7.8,6.3,14,14,14l0,0c7.8,0,14-6.3,14-14l0,0c0-7.8-6.3-14-14-14l0,0C137.9,173.4,131.6,179.6,131.6,187.4"/>
				</g>
			</g>
		</g>
	</g>
	<g id="g3767_1_" transform="translate(-48.348348,-103.003)">
		<g id="g3769_1_">
			<g id="g3775_1_">
				<g id="g3777_1_">
					
						<radialGradient id="path3787_00000168087780196016894580000008517993754762220933_" cx="-131.0828" cy="604.1731" r="1.1253" gradientTransform="matrix(14.3331 0 0 14.3331 2029.4274 -8487.2148)" gradientUnits="userSpaceOnUse">
						<stop  offset="0" style="stop-color:#FBF6CC"/>
						<stop  offset="0.4396" style="stop-color:#FFCB03"/>
						<stop  offset="1" style="stop-color:#EB671B"/>
					</radialGradient>
					<path id="path3787_1_" style="fill:url(#path3787_00000168087780196016894580000008517993754762220933_);" d="M137.5,179.5
						c0,2.8,3.7,5.1,8.2,5.1l0,0c4.5,0,8.2-2.3,8.2-5.1l0,0c0-2.8-3.7-5.1-8.2-5.1l0,0C141.1,174.4,137.5,176.7,137.5,179.5"/>
				</g>
			</g>
		</g>
	</g>
	<g id="g3789_1_" transform="translate(-48.348348,-103.003)">
		<g id="g3791_1_">
			<g id="g3797_1_">
				<g id="g3799_1_">
					
						<linearGradient id="path3807_00000091719779135115047590000011615187961732164538_" gradientUnits="userSpaceOnUse" x1="-140.9467" y1="569.5569" x2="-139.8214" y2="569.5569" gradientTransform="matrix(0 56.522 -56.522 0 32338.1582 8166.5938)">
						<stop  offset="0" style="stop-color:#000000"/>
						<stop  offset="1" style="stop-color:#7F7F7F"/>
					</linearGradient>
					<path id="path3807_1_" style="fill:url(#path3807_00000091719779135115047590000011615187961732164538_);" d="M145.8,252.6
						l-0.1,0l-0.1,0c-7.7-0.2-15.4-18.8-32-55.8l0,0c-1.5,5.2-2.3,10.9-2.3,16.8l0,0c0,16.2,6,30.6,15.2,39l0,0
						c5.5,5.1,12.1,8.1,19.2,8.1l0,0c7.1,0,13.8-3,19.2-8.1l0,0c9.1-8.5,15.1-22.8,15.1-39l0,0c0-5.9-0.8-11.6-2.2-16.8l0,0
						C161.2,233.8,153.5,252.4,145.8,252.6"/>
				</g>
			</g>
		</g>
	</g>
	<g id="g3809_1_" transform="translate(-48.348348,-103.003)">
		<g id="g3811_1_">
			<g id="g3817_1_">
				<g id="g3819_1_">
					
						<radialGradient id="path3827_00000121240607885950688130000002041067987342132882_" cx="-134.9577" cy="597.8347" r="1.1253" gradientTransform="matrix(18.3453 0 0 18.3453 2621.0864 -10752.1602)" gradientUnits="userSpaceOnUse">
						<stop  offset="0" style="stop-color:#FFCB03"/>
						<stop  offset="1" style="stop-color:#EB671B"/>
					</radialGradient>
					<path id="path3827_1_" style="fill:url(#path3827_00000121240607885950688130000002041067987342132882_);" d="M186,171.3
						c-4,5.1-8.1,10.2-12.1,15.3l0,0c-27.2,34.3-29.2,34.3-56.4,0l0,0c-4.1-5.1-8.1-10.2-12.1-15.3l0,0l-4.3-2.1
						c5,6.8,10,13.5,15,20.3l0,0c15,20.3,22.3,30.5,29.6,30.5l0,0c7.3,0,14.6-10.2,29.6-30.5l0,0c5-6.8,10-13.5,15-20.3l0,0
						L186,171.3z"/>
				</g>
			</g>
		</g>
	</g>
	<g id="g3831_1_">
		<g id="g3837_1_" transform="translate(82.7915,108.3467)">
			<path id="path3839_1_" class="st6" d="M14.5,49.3c-7.1,0-13.8-3-19.2-8.1c-2.2-2-4.1-4.3-5.9-6.9c1.9,3,4,5.7,6.4,8
				c5.3,5.1,11.8,8.1,18.7,8.1c6.9,0,13.4-3,18.7-8.1c2.4-2.3,4.5-4.9,6.4-7.9c-1.8,2.6-3.7,4.9-5.9,6.9
				C28.3,46.4,21.7,49.3,14.5,49.3"/>
		</g>
	</g>
	<g id="g3841_1_" transform="translate(-48.348348,-103.003)">
		<g id="g3843_1_">
			<g id="g3849_1_">
				<g id="g3851_1_">
					
						<linearGradient id="path3859_00000150070417767843174610000000981448991323217851_" gradientUnits="userSpaceOnUse" x1="-157.9398" y1="568.7184" x2="-156.8145" y2="568.7184" gradientTransform="matrix(0 -47.547 -47.547 0 27186.5215 -7254.5405)">
						<stop  offset="0" style="stop-color:#EB671B"/>
						<stop  offset="1" style="stop-color:#FFCB03"/>
					</linearGradient>
					<path id="path3859_1_" style="fill:url(#path3859_00000150070417767843174610000000981448991323217851_);" d="M175.2,189.5
						c-15,20.3-22.3,30.5-29.6,30.5l0,0c-7.3,0-14.6-10.2-29.6-30.5l0,0c-5-6.8-10-13.5-15-20.3l0,0l5.6,11.7c2.4,5,4.8,10,7.1,15
						l0,0c16.6,35,24.2,52.5,31.9,52.5l0,0c7.7,0,15.3-17.5,31.9-52.5l0,0c2.4-5,4.7-10,7.1-15l0,0l5.6-11.7L175.2,189.5z"/>
				</g>
			</g>
		</g>
	</g>
	<g id="g3863_1_">
		<g id="g3869_1_" transform="translate(101.1753,155.3662)">
			<path id="path3871_1_" class="st6" d="M22-63.8c-12.4,16-19.1,24-25.9,24c-6.7,0-13.5-8-25.9-24.1c12.5,17,19.2,25.5,25.9,25.5
				C2.8-38.4,9.5-46.9,22-63.8"/>
		</g>
	</g>
	<g id="g3873_1_" transform="translate(-48.348348,-103.003)">
		<g id="g3875_1_">
			<g id="g3881_1_">
				<g id="g3883_1_">
					
						<linearGradient id="path3891_00000130625693581342415900000016279039859006633635_" gradientUnits="userSpaceOnUse" x1="-162.0506" y1="582.2685" x2="-160.9253" y2="582.2685" gradientTransform="matrix(0 -32.8264 32.8264 0 -18791.4629 -5080.5381)">
						<stop  offset="0" style="stop-color:#000000"/>
						<stop  offset="1" style="stop-color:#7F7F7F"/>
					</linearGradient>
					<path id="path3891_1_" style="fill:url(#path3891_00000130625693581342415900000016279039859006633635_);" d="M359.6,204.1
						c-4.3,0.6-6.9,2.6-7.9,6.1l0,0c-0.7,2.4-1,6.4-1,11.9l0,0c0,5.9,0.3,10,1,12.4l0,0c1,3.5,3.6,5.5,7.9,6.1l0,0
						c3,0.4,8.4,0.6,16.4,0.6l0,0c7.8,0,13.2-0.2,16.2-0.6l0,0c4.3-0.6,6.9-2.6,7.9-6.1l0,0c0.7-2.4,1-6.5,1-12.2l0,0
						c0-5.7-0.3-9.8-1-12.1l0,0c-1-3.5-3.6-5.5-7.9-6.1l0,0c-3-0.4-8.4-0.6-16.3-0.6l0,0C368,203.5,362.5,203.7,359.6,204.1
						 M366.3,231.4c-2.3-0.3-3.6-1.3-4-3.2l0,0c-0.2-1-0.4-2.6-0.4-4.9l0,0c0-3.7,0.2-6.2,0.6-7.4l0,0c0.4-1.2,1.3-2,2.7-2.4l0,0
						c1.2-0.3,4.8-0.5,10.7-0.5l0,0c5.2,0,8.5,0.1,9.8,0.3l0,0c1.4,0.2,2.3,0.7,2.9,1.5l0,0c0.5,0.6,0.8,1.6,1,2.8l0,0
						c0.2,1.2,0.3,3.2,0.3,5.8l0,0c0,2.2-0.1,3.8-0.3,4.8l0,0c-0.2,1-0.7,1.7-1.3,2.2l0,0c-0.7,0.6-1.8,0.9-3.3,1.1l0,0
						c-1.5,0.2-4.5,0.2-9,0.2l0,0C371.2,231.7,368,231.6,366.3,231.4 M405.5,204.1v36.6h11.2v-9.3h15.7c2.3,0,3.8,0.1,4.5,0.2l0,0
						c0.7,0.1,1.3,0.4,1.7,0.8l0,0c0.4,0.5,0.7,1.1,0.8,2l0,0c0.2,0.9,0.2,2.3,0.2,4.4l0,0v2h11v-3.4c0-3.2-0.1-5.2-0.2-6.2l0,0
						c-0.2-1-0.5-1.8-1.1-2.5l0,0c-1-1.2-2.7-1.8-5-2l0,0c2-0.3,3.5-0.9,4.5-1.7l0,0c0.9-0.7,1.5-1.7,1.9-3l0,0
						c0.3-1.3,0.5-3.2,0.5-5.9l0,0c0-3.2-0.3-5.5-0.8-7l0,0c-0.5-1.5-1.5-2.6-2.9-3.5l0,0c-1.2-0.7-2.4-1.1-3.6-1.2l0,0
						c-1.3-0.1-5-0.2-11.4-0.2l0,0L405.5,204.1L405.5,204.1z M416.6,213.2h15.7c2.6,0,4.1,0,4.7,0.1l0,0c0.5,0,1,0.1,1.4,0.3l0,0
						c0.6,0.3,0.9,0.7,1.2,1.3l0,0c0.2,0.6,0.3,1.5,0.3,2.7l0,0c0,1.2-0.1,2.1-0.3,2.7l0,0c-0.2,0.6-0.5,1-1,1.3l0,0
						c-0.4,0.2-0.8,0.4-1.4,0.4l0,0c-0.5,0-2.2,0.1-4.9,0.1l0,0h-15.7V213.2L416.6,213.2z M309.7,204.1v36.6h11.2V228H347v-8.4
						h-26.2v-6.9h27.5v-8.6L309.7,204.1L309.7,204.1z M262.8,204.1v9.3h16.3v27.3h11.7v-27.3h16.3v-9.3H262.8z M248.5,240.7h11.7
						v-36.6h-11.7V240.7z M234.5,204.1l-13.2,27.4h-2.1l-13.4-27.4h-12.3l18.1,36.6h17.1l17.9-36.6H234.5z"/>
				</g>
			</g>
		</g>
	</g>
	<g id="g3895">
		<g id="g3901" transform="translate(296.5811,111.4639)">
			<path id="path3903" d="M101.5,41.8v-6h4.4v1h-3.2v1.3h3v1h-3v1.6h3.3v1H101.5z M95.9,38.4h0.9c0.6,0,0.9,0,1.1-0.1
				c0.1,0,0.3-0.1,0.3-0.3c0.1-0.1,0.1-0.3,0.1-0.4c0-0.2-0.1-0.4-0.2-0.5c-0.1-0.1-0.3-0.2-0.5-0.2c-0.1,0-0.4,0-0.9,0h-0.9V38.4z
				 M94.7,41.8v-6h2.5c0.6,0,1.1,0.1,1.4,0.2c0.3,0.1,0.5,0.3,0.7,0.6c0.2,0.3,0.3,0.6,0.3,0.9c0,0.4-0.1,0.8-0.4,1.1
				c-0.3,0.3-0.7,0.5-1.2,0.5c0.3,0.2,0.5,0.3,0.6,0.5c0.2,0.2,0.4,0.5,0.7,1l0.7,1.2h-1.4l-0.9-1.3c-0.3-0.5-0.5-0.8-0.6-0.9
				c-0.1-0.1-0.2-0.2-0.4-0.2c-0.1,0-0.3-0.1-0.6-0.1h-0.2v2.5H94.7z M88.4,41.8v-6h4.4v1h-3.2v1.3h3v1h-3v1.6H93v1H88.4z
				 M81.7,41.8v-6h1.2v2.4h2.4v-2.4h1.2v6h-1.2v-2.6h-2.4v2.6H81.7z M77.2,41.8v-5h-1.8v-1h4.8v1h-1.8v5H77.2z M66.8,35.9H68v3.2
				c0,0.5,0,0.9,0,1c0.1,0.2,0.2,0.4,0.4,0.6c0.2,0.1,0.5,0.2,0.8,0.2c0.3,0,0.6-0.1,0.8-0.2c0.2-0.1,0.3-0.3,0.3-0.5
				c0-0.2,0-0.5,0-1v-3.3h1.2V39c0,0.7,0,1.2-0.1,1.5c-0.1,0.3-0.2,0.5-0.4,0.7c-0.2,0.2-0.4,0.4-0.7,0.5c-0.3,0.1-0.7,0.2-1.1,0.2
				c-0.6,0-1-0.1-1.3-0.2c-0.3-0.1-0.5-0.3-0.7-0.5c-0.2-0.2-0.3-0.4-0.3-0.7c-0.1-0.3-0.1-0.8-0.1-1.5V35.9z M60.6,38.8
				c0,0.7,0.2,1.2,0.5,1.5c0.3,0.3,0.7,0.5,1.2,0.5c0.5,0,0.9-0.2,1.2-0.5c0.3-0.3,0.5-0.9,0.5-1.6c0-0.7-0.1-1.2-0.5-1.5
				c-0.3-0.3-0.7-0.5-1.2-0.5S61.3,37,61,37.3C60.7,37.6,60.6,38.2,60.6,38.8 M59.3,38.9c0-0.6,0.1-1.1,0.3-1.5
				c0.1-0.3,0.3-0.6,0.6-0.8c0.2-0.2,0.5-0.4,0.8-0.5c0.4-0.2,0.8-0.2,1.3-0.2c0.9,0,1.6,0.3,2.1,0.8c0.5,0.5,0.8,1.3,0.8,2.3
				c0,1-0.3,1.7-0.8,2.3c-0.5,0.5-1.2,0.8-2.1,0.8c-0.9,0-1.6-0.3-2.1-0.8C59.6,40.6,59.3,39.8,59.3,38.9 M54.8,41.8v-2.5l-2.2-3.5
				h1.4l1.4,2.4l1.4-2.4h1.4l-2.2,3.5v2.5H54.8z M44.8,41.8v-6h4.4v1H46v1.3h3v1h-3v1.6h3.3v1H44.8z M38.1,41.8v-6h1.2v2.7l2.4-2.7
				h1.6l-2.2,2.3l2.4,3.7h-1.6L40.3,39l-1,1v1.8H38.1z M34.5,39.5l-0.8-2.2l-0.8,2.2H34.5z M36.7,41.8h-1.3l-0.5-1.4h-2.4L32,41.8
				h-1.3l2.3-6h1.3L36.7,41.8z M27.5,41.8v-5h-1.8v-1h4.8v1h-1.8v5H27.5z M18.2,41.8v-5.9h1.2v4.9h3v1H18.2z M12.3,41.8v-5.9h1.2
				v4.9h3v1H12.3z M9.6,38l-0.2-1.1v-1h1.2v1L10.4,38H9.6z M3.3,41.8v-6h4.4v1H4.5v1.3h3v1h-3v1.6h3.3v1H3.3z M-4.4,41.8l-1.4-6h1.2
				l0.9,4.1l1.1-4.1h1.4l1.1,4.2l0.9-4.2H2l-1.4,6h-1.3l-1.2-4.5l-1.2,4.5H-4.4z M-11.2,39.1H-9v1.2h-2.2V39.1z M-19,38.4h0.9
				c0.6,0,0.9,0,1.1-0.1c0.1,0,0.3-0.1,0.3-0.3c0.1-0.1,0.1-0.3,0.1-0.4c0-0.2-0.1-0.4-0.2-0.5c-0.1-0.1-0.3-0.2-0.5-0.2
				c-0.1,0-0.4,0-0.9,0H-19L-19,38.4L-19,38.4z M-20.2,41.8v-6h2.5c0.6,0,1.1,0.1,1.4,0.2c0.3,0.1,0.5,0.3,0.7,0.6
				c0.2,0.3,0.3,0.6,0.3,0.9c0,0.4-0.1,0.8-0.4,1.1c-0.3,0.3-0.7,0.5-1.2,0.5c0.3,0.2,0.5,0.3,0.6,0.5c0.2,0.2,0.4,0.5,0.7,1
				l0.7,1.2h-1.4l-0.9-1.3c-0.3-0.5-0.5-0.8-0.6-0.9c-0.1-0.1-0.2-0.2-0.4-0.2c-0.1-0.1-0.3-0.1-0.6-0.1H-19v2.5H-20.2z M-26.5,41.8
				v-6h4.4v1h-3.2v1.3h3v1h-3v1.6h3.3v1H-26.5z M-30.9,39.6v-1h2.6V41c-0.3,0.2-0.6,0.5-1.1,0.6c-0.5,0.2-1,0.3-1.5,0.3
				c-0.6,0-1.2-0.1-1.6-0.4c-0.5-0.3-0.8-0.6-1.1-1.1c-0.2-0.5-0.3-1-0.3-1.6c0-0.6,0.1-1.2,0.4-1.7c0.3-0.5,0.6-0.9,1.2-1.1
				c0.4-0.2,0.9-0.3,1.4-0.3c0.7,0,1.3,0.2,1.7,0.5c0.4,0.3,0.7,0.7,0.8,1.3l-1.2,0.2c-0.1-0.3-0.2-0.5-0.5-0.7
				c-0.2-0.2-0.5-0.3-0.9-0.3c-0.5,0-1,0.2-1.3,0.5c-0.3,0.3-0.5,0.8-0.5,1.5c0,0.7,0.2,1.2,0.5,1.6c0.3,0.4,0.7,0.5,1.2,0.5
				c0.3,0,0.5-0.1,0.8-0.1c0.3-0.1,0.5-0.2,0.7-0.4v-0.8H-30.9z M-40.4,41.8v-6h1.2l2.4,4v-4h1.1v6h-1.2l-2.4-3.9v3.9H-40.4z
				 M-46.6,38.8c0,0.7,0.2,1.2,0.5,1.5c0.3,0.3,0.7,0.5,1.2,0.5c0.5,0,0.9-0.2,1.2-0.5c0.3-0.3,0.5-0.9,0.5-1.6
				c0-0.7-0.1-1.2-0.4-1.5c-0.3-0.3-0.7-0.5-1.2-0.5c-0.5,0-0.9,0.2-1.2,0.5C-46.5,37.6-46.6,38.2-46.6,38.8 M-47.9,38.9
				c0-0.6,0.1-1.1,0.3-1.5c0.1-0.3,0.3-0.6,0.6-0.8c0.2-0.2,0.5-0.4,0.8-0.5c0.4-0.2,0.8-0.2,1.3-0.2c0.9,0,1.6,0.3,2.1,0.8
				c0.5,0.5,0.8,1.3,0.8,2.3c0,1-0.3,1.7-0.8,2.3c-0.5,0.5-1.2,0.8-2.1,0.8c-0.9,0-1.6-0.3-2.1-0.8C-47.6,40.6-47.9,39.8-47.9,38.9
				 M-53.2,38.4h0.9c0.6,0,0.9,0,1.1-0.1c0.1,0,0.3-0.1,0.3-0.3c0.1-0.1,0.1-0.3,0.1-0.4c0-0.2-0.1-0.4-0.2-0.5
				c-0.1-0.1-0.3-0.2-0.5-0.2c-0.1,0-0.4,0-0.9,0h-0.9L-53.2,38.4z M-54.4,41.8v-6h2.5c0.6,0,1.1,0.1,1.4,0.2
				c0.3,0.1,0.5,0.3,0.7,0.6c0.2,0.3,0.3,0.6,0.3,0.9c0,0.4-0.1,0.8-0.4,1.1c-0.3,0.3-0.7,0.5-1.2,0.5c0.3,0.2,0.5,0.3,0.6,0.5
				c0.2,0.2,0.4,0.5,0.7,1l0.7,1.2h-1.4l-0.9-1.3c-0.3-0.5-0.5-0.8-0.6-0.9c-0.1-0.1-0.2-0.2-0.4-0.2c-0.1-0.1-0.3-0.1-0.6-0.1h-0.2
				v2.5H-54.4z M-58.9,41.8v-5h-1.8v-1h4.8v1h-1.8v5H-58.9z M-66.8,39.9l1.2-0.1c0.1,0.4,0.2,0.7,0.4,0.9c0.2,0.2,0.5,0.3,0.9,0.3
				c0.4,0,0.7-0.1,0.9-0.2c0.2-0.2,0.3-0.4,0.3-0.6c0-0.1,0-0.3-0.1-0.4c-0.1-0.1-0.2-0.2-0.4-0.3c-0.1-0.1-0.5-0.1-1-0.3
				c-0.7-0.2-1.1-0.4-1.4-0.6c-0.4-0.3-0.5-0.7-0.5-1.2c0-0.3,0.1-0.6,0.3-0.9c0.2-0.3,0.4-0.5,0.7-0.6c0.3-0.1,0.7-0.2,1.2-0.2
				c0.8,0,1.3,0.2,1.7,0.5c0.4,0.3,0.6,0.8,0.6,1.3l-1.2,0c-0.1-0.3-0.2-0.5-0.3-0.7c-0.2-0.1-0.4-0.2-0.8-0.2
				c-0.3,0-0.6,0.1-0.8,0.2c-0.1,0.1-0.2,0.2-0.2,0.4c0,0.1,0.1,0.3,0.2,0.4c0.2,0.1,0.5,0.3,1.1,0.4c0.6,0.1,1,0.3,1.3,0.4
				c0.3,0.2,0.5,0.4,0.7,0.6c0.2,0.3,0.2,0.6,0.2,0.9c0,0.3-0.1,0.7-0.3,1c-0.2,0.3-0.5,0.5-0.8,0.7c-0.3,0.1-0.8,0.2-1.3,0.2
				c-0.8,0-1.3-0.2-1.7-0.5C-66.5,41.1-66.7,40.6-66.8,39.9 M-71.9,40.7h1.1v0.8c0,0.3,0,0.6-0.1,0.8c-0.1,0.2-0.2,0.4-0.3,0.5
				c-0.2,0.2-0.4,0.3-0.6,0.4l-0.2-0.5c0.2-0.1,0.4-0.2,0.5-0.3c0.1-0.1,0.1-0.3,0.2-0.5h-0.6V40.7z M-77.4,38.4h0.9
				c0.6,0,0.9,0,1.1-0.1c0.1,0,0.3-0.1,0.3-0.3c0.1-0.1,0.1-0.3,0.1-0.4c0-0.2-0.1-0.4-0.2-0.5c-0.1-0.1-0.3-0.2-0.5-0.2
				c-0.1,0-0.4,0-0.9,0h-0.9L-77.4,38.4z M-78.6,41.8v-6h2.5c0.6,0,1.1,0.1,1.4,0.2c0.3,0.1,0.5,0.3,0.7,0.6
				c0.2,0.3,0.3,0.6,0.3,0.9c0,0.4-0.1,0.8-0.4,1.1c-0.3,0.3-0.7,0.5-1.2,0.5c0.3,0.2,0.5,0.3,0.6,0.5c0.2,0.2,0.4,0.5,0.7,1
				l0.7,1.2h-1.4l-0.9-1.3c-0.3-0.5-0.5-0.8-0.6-0.9c-0.1-0.1-0.2-0.2-0.4-0.2c-0.1-0.1-0.3-0.1-0.6-0.1h-0.2v2.5H-78.6L-78.6,41.8z
				 M-84.9,41.8v-6h4.4v1h-3.2v1.3h3v1h-3v1.6h3.3v1H-84.9z M-91.6,41.8v-6h1.2v2.4h2.4v-2.4h1.2v6h-1.2v-2.6h-2.4v2.6H-91.6z
				 M-96.1,39.6v-1h2.6V41c-0.3,0.2-0.6,0.5-1.1,0.6c-0.5,0.2-1,0.3-1.5,0.3c-0.6,0-1.2-0.1-1.6-0.4c-0.5-0.3-0.8-0.6-1-1.1
				c-0.2-0.5-0.4-1-0.4-1.6c0-0.6,0.1-1.2,0.4-1.7c0.3-0.5,0.6-0.9,1.2-1.1c0.4-0.2,0.9-0.3,1.4-0.3c0.7,0,1.3,0.2,1.7,0.5
				c0.4,0.3,0.7,0.7,0.8,1.3l-1.2,0.2c-0.1-0.3-0.2-0.5-0.5-0.7c-0.2-0.2-0.5-0.3-0.9-0.3c-0.5,0-0.9,0.2-1.3,0.5
				c-0.3,0.3-0.5,0.8-0.5,1.5c0,0.7,0.2,1.2,0.5,1.6c0.3,0.4,0.7,0.5,1.2,0.5c0.3,0,0.5-0.1,0.8-0.1c0.3-0.1,0.5-0.2,0.7-0.4v-0.8
				H-96.1L-96.1,39.6z M-101.9,35.8h1.2v6h-1.2V35.8z M-108.6,41.8v-6h1.2v2.4h2.4v-2.4h1.2v6h-1.2v-2.6h-2.4v2.6H-108.6z
				 M-114,40.7h1.1v0.8c0,0.3,0,0.6-0.1,0.8c-0.1,0.2-0.2,0.4-0.3,0.5c-0.2,0.2-0.4,0.3-0.6,0.4l-0.2-0.5c0.2-0.1,0.4-0.2,0.5-0.3
				c0.1-0.1,0.1-0.3,0.2-0.5h-0.6V40.7z M-119.5,38.4h0.9c0.6,0,0.9,0,1.1-0.1c0.1,0,0.3-0.1,0.3-0.3c0.1-0.1,0.1-0.3,0.1-0.4
				c0-0.2-0.1-0.4-0.2-0.5c-0.1-0.1-0.3-0.2-0.5-0.2c-0.1,0-0.4,0-0.9,0h-0.9V38.4z M-120.8,41.8v-6h2.5c0.6,0,1.1,0.1,1.4,0.2
				c0.3,0.1,0.5,0.3,0.7,0.6c0.2,0.3,0.3,0.6,0.3,0.9c0,0.4-0.1,0.8-0.4,1.1c-0.3,0.3-0.7,0.5-1.2,0.5c0.3,0.2,0.5,0.3,0.6,0.5
				c0.2,0.2,0.4,0.5,0.7,1l0.7,1.2h-1.4l-0.9-1.3c-0.3-0.5-0.5-0.8-0.6-0.9c-0.1-0.1-0.2-0.2-0.4-0.2c-0.1-0.1-0.3-0.1-0.6-0.1h-0.2
				v2.5H-120.8L-120.8,41.8z M-127,41.8v-6h4.4v1h-3.2v1.3h3v1h-3v1.6h3.3v1H-127z M-131.5,41.8v-5h-1.8v-1h4.8v1h-1.8v5H-131.5z
				 M-139.5,39.9l1.2-0.1c0.1,0.4,0.2,0.7,0.4,0.9c0.2,0.2,0.5,0.3,0.9,0.3c0.4,0,0.7-0.1,0.9-0.2c0.2-0.2,0.3-0.4,0.3-0.6
				c0-0.1,0-0.3-0.1-0.4c-0.1-0.1-0.2-0.2-0.4-0.3c-0.1-0.1-0.5-0.1-1-0.3c-0.6-0.2-1.1-0.4-1.4-0.6c-0.4-0.3-0.6-0.7-0.6-1.2
				c0-0.3,0.1-0.6,0.3-0.9c0.2-0.3,0.4-0.5,0.7-0.6c0.3-0.1,0.7-0.2,1.2-0.2c0.8,0,1.3,0.2,1.7,0.5c0.4,0.3,0.6,0.8,0.6,1.3l-1.2,0
				c-0.1-0.3-0.2-0.5-0.3-0.7c-0.2-0.1-0.4-0.2-0.8-0.2c-0.3,0-0.6,0.1-0.8,0.2c-0.1,0.1-0.2,0.2-0.2,0.4c0,0.1,0.1,0.3,0.2,0.4
				c0.2,0.1,0.5,0.3,1.1,0.4c0.6,0.1,1,0.3,1.3,0.4c0.3,0.2,0.5,0.4,0.7,0.6c0.2,0.3,0.2,0.6,0.2,0.9c0,0.3-0.1,0.7-0.3,1
				c-0.2,0.3-0.5,0.5-0.8,0.7c-0.3,0.1-0.8,0.2-1.3,0.2c-0.8,0-1.3-0.2-1.7-0.5C-139.1,41.1-139.4,40.6-139.5,39.9 M-142.7,39.5
				l-0.8-2.2l-0.8,2.2H-142.7z M-140.5,41.8h-1.3l-0.5-1.4h-2.4l-0.5,1.4h-1.3l2.3-6h1.3L-140.5,41.8L-140.5,41.8z M-151.3,41.8v-6
				h4.1v1h-2.9v1.4h2.5v1h-2.5v2.5H-151.3z"/>
		</g>
	</g>
</g>
</svg>
