<?xml version="1.0" encoding="utf-8"?>
<!-- Generator: Adobe Illustrator 26.5.0, SVG Export Plug-In . SVG Version: 6.00 Build 0)  -->
<svg version="1.1" id="Layer_1" xmlns="http://www.w3.org/2000/svg" xmlns:xlink="http://www.w3.org/1999/xlink" x="0px" y="0px"
	 viewBox="0 0 455.5 227.7" style="enable-background:new 0 0 455.5 227.7;" xml:space="preserve">
<style type="text/css">
	.st0{fill:#F8C110;}
	.st1{fill:url(#path3745_00000083074513233124806850000013332058909325166493_);}
	.st2{fill:url(#path3765_00000095312045377444669810000011776966131068794530_);}
	.st3{fill:url(#path3787_00000049180593846985222940000004393948807232019378_);}
	.st4{fill:url(#path3807_00000072239477684820539490000002912344633391950210_);}
	.st5{fill:url(#path3827_00000109020228840007664310000017049890775845261954_);}
	.st6{fill:#FFFFFF;}
	.st7{fill:url(#path3859_00000017504664261747997310000000548696569409787799_);}
	.st8{fill:url(#path3891_00000160171049012506234190000012671873211364027536_);}
</style>
<g>
	<g>
		<g id="XMLID_00000176721539016527697080000007148534294253939636_">
			<g>
				<path class="st0" d="M94.9,103.8l23.2-27.3c0.9-1,2.5,0,1.9,1.2l-26.3,53.8c-2.9,6-11.5,6-14.4,0L52.9,77.7
					c-0.6-1.2,1-2.3,1.9-1.2l23.2,27.3C82.4,109,90.4,109,94.9,103.8z M98.2,134c-2.2,4.5-6.7,7.4-11.8,7.4s-9.6-2.8-11.8-7.4
					l-16.3-33.3c-9.6,11,3.5,51,28.1,51c24.6,0,37.7-40,28.1-51L98.2,134z M86.4,77.9c-5.8,0-10.5,4.7-10.5,10.5s4.7,10.5,10.5,10.5
					c5.8,0,10.5-4.7,10.5-10.5S92.2,77.9,86.4,77.9z"/>
			</g>
		</g>
		<g id="g3873_00000082368975299458947380000012671560776450543526_" transform="translate(-48.348348,-103.003)">
			<g>
				<g id="g3875_00000025440776506963160570000016236459058986767518_">
					<g id="g3881_00000118368623640970900590000003485015573680924824_">
						<g id="g3883_00000052076324846737209140000000049225520814926213_">
							<path id="path3891_00000036960665561844605890000010727925462258699147_" class="st0" d="M354.9,197.7
								c-4.5,0.6-7.3,2.7-8.3,6.4l0,0c-0.7,2.5-1,6.7-1,12.6l0,0c0,6.2,0.3,10.5,1,13l0,0c1,3.7,3.8,5.8,8.3,6.4l0,0
								c3.1,0.4,8.9,0.6,17.3,0.6l0,0c8.2,0,13.9-0.2,17-0.6l0,0c4.5-0.6,7.2-2.7,8.3-6.4l0,0c0.7-2.5,1-6.8,1-12.8l0,0
								c0-6-0.4-10.3-1-12.8l0,0c-1-3.7-3.8-5.8-8.3-6.4l0,0c-3.1-0.4-8.8-0.6-17.1-0.6l0,0C363.7,197.1,358,197.3,354.9,197.7
								 M362,226.3c-2.4-0.3-3.8-1.4-4.3-3.4l0,0c-0.2-1-0.4-2.8-0.4-5.1l0,0c0-3.9,0.2-6.5,0.7-7.8l0,0c0.5-1.3,1.4-2.1,2.9-2.5
								l0,0c1.3-0.3,5-0.5,11.2-0.5l0,0c5.4,0,8.9,0.1,10.3,0.3l0,0c1.4,0.2,2.5,0.7,3.1,1.5l0,0c0.5,0.7,0.8,1.6,1,2.9l0,0
								c0.2,1.3,0.3,3.3,0.3,6.1l0,0c0,2.3-0.1,4-0.4,5l0,0c-0.2,1-0.7,1.8-1.4,2.3l0,0c-0.7,0.6-1.9,1-3.5,1.1l0,0
								c-1.6,0.2-4.7,0.3-9.4,0.3l0,0C367.1,226.7,363.7,226.5,362,226.3 M403.1,197.6v38.5h11.7v-9.8h16.5c2.4,0,4,0.1,4.8,0.2l0,0
								c0.8,0.1,1.4,0.4,1.8,0.9l0,0c0.4,0.5,0.7,1.2,0.9,2.1l0,0c0.2,0.9,0.2,2.4,0.2,4.6l0,0v2.1h11.6v-3.6c0-3.3-0.1-5.5-0.3-6.6
								l0,0c-0.2-1-0.6-1.9-1.2-2.7l0,0c-1.1-1.2-2.8-1.9-5.3-2.1l0,0c2.1-0.3,3.7-0.9,4.7-1.8l0,0c1-0.8,1.6-1.8,2-3.2l0,0
								c0.3-1.3,0.5-3.4,0.5-6.2l0,0c0-3.3-0.3-5.8-0.8-7.3l0,0c-0.5-1.6-1.6-2.8-3-3.7l0,0c-1.2-0.8-2.5-1.2-3.8-1.3l0,0
								c-1.3-0.1-5.3-0.2-12-0.2l0,0L403.1,197.6L403.1,197.6z M414.9,207.2h16.5c2.7,0,4.3,0.1,4.9,0.1l0,0c0.6,0,1.1,0.1,1.5,0.3
								l0,0c0.6,0.3,1,0.7,1.2,1.3l0,0c0.2,0.6,0.4,1.6,0.4,2.8l0,0c0,1.3-0.1,2.2-0.3,2.9l0,0c-0.2,0.6-0.6,1.1-1.1,1.4l0,0
								c-0.4,0.2-0.9,0.4-1.4,0.4l0,0c-0.6,0-2.3,0.1-5.1,0.2l0,0h-16.5V207.2L414.9,207.2z M302.4,197.6v38.5h11.7v-13.3h27.5v-8.8
								h-27.5v-7.3h29v-9L302.4,197.6L302.4,197.6z M253.2,197.6v9.8h17.1v28.7h12.3v-28.7h17.1v-9.8H253.2z M238.2,236.1h12.3
								v-38.5h-12.3V236.1z M223.4,197.6l-13.9,28.8h-2.2l-14-28.8h-12.9l19,38.5h18l18.8-38.5H223.4z"/>
						</g>
					</g>
				</g>
			</g>
		</g>
	</g>
</g>
</svg>
