<?xml version="1.0" encoding="utf-8"?>
<!-- Generator: Adobe Illustrator 26.5.0, SVG Export Plug-In . SVG Version: 6.00 Build 0)  -->
<svg version="1.1" id="Layer_1" xmlns="http://www.w3.org/2000/svg" xmlns:xlink="http://www.w3.org/1999/xlink" x="0px" y="0px"
	 viewBox="0 0 199.6 252.9" style="enable-background:new 0 0 199.6 252.9;" xml:space="preserve">
<style type="text/css">
	.st0{fill:#0C0C0B;}
</style>
<g>
	<path class="st0" d="M81.5,74.8c-2.1,0.7-3.7,1.3-4.8,1.7c0.8-4.5,2.1-8.7,2-13c0-1.6-3.1-3.2-4.9-4.8c-0.8,2-1.6,4-2.8,7.1
		c-4-0.1-5.4-3.5-4.9-7.9s1.9-8.8,2.4-13.2c0.2-2-1-4.2-2.1-8.3c0.5-1.3,6.8-4.3-0.5-7.9c-0.8-0.4-1.3-3.5-0.7-4.6
		c4.2-7.6,8.5-15.2,13.4-22.3c1.1-1.6,5-1.7,7.6-1.6c7.5,0.2,15,0.9,23.1,1.4c-0.7,2-1.3,3.6-2,5.7c7.6,1.8,14.9,4,22.5,5.2
		c6.4,1,10.1,3.8,9.1,10.4c-1.1,7.2-6.4,6.7-11.8,5.4c-0.8-0.2-1.8,0.5-3.6,1c5,4,8.5,6.5,11.8,11.5c-10.4,5.7-14.1,4.6-1,10.9
		c4.4,1.9,11.1,1.4,8,9.6c-0.4,2.8,3.2,5.4,5.7,4.1c10-6.7,20.1-13.2,29.6-20.5c7.5-5.7,16-6.4,21.3,0c-2.2,0.2-4.1,0.5-8.6,0.9
		c4.2,2.5,6.7,3.9,9.3,5.4c-0.4,0.6-0.8,1.2-1.2,1.8c-3.5,0-6.9,0-12.2,0c4.2,2.2,6.9,3.6,9.7,5c-21.4,0.8-30.1,22.7-48.7,26.5
		c1.9,2.1,4,3.4,3.9,4.5c-0.4,4.8,0,10.9-2.7,14c-10.8,12.4-16.2,29.5-33,37c-8.9,3.9-11.8,13.4-14.1,22.7
		c-4.4,17.6-10.3,34.7-26.6,45c-6.1,3.9-7.9,8.7-8.1,15.3c-0.2,8.9-1.4,18.1,11.8,18.5c-0.4,2.7-0.7,4.7-1,6.5c-4,0-7.8,0-12.2,0
		c-0.1,1.5-0.3,3.5-0.4,5.1c-19.2-9.6-10.9-27.8-12.6-42.4c-0.6-5,6.5-10.7,9.8-16.3c1-1.7,2-4.2,1.5-5.9
		c-4.1-14.6-2.3-28.4,3.5-42.3c-4.3,7.1-8,16.4-15.5,20.5c-28.4,12-55.3-8.2-51.1-38.9c1.4-10.1,5.8-20.4,11.1-29.2
		c6.1-10,15.6-11.1,26.4-7.2c6.3,2.2,11.9,4.1,14.5,11.2c0.6,1.6,4,2.1,6.3,3.2c-0.7,2-1.6,5-2.6,8c-1.4-0.4-2.9-0.8-4.4-1.2
		c-0.2,1.3-0.9,3-0.4,3.7c4.2,5.2-0.8,8.2-3,11.3c-2.4,3.5-6.3,5.8-9.1,9.1c-1.6,2-2.2,4.8-3.6,7.9c3.4,0,5.2,0,7,0
		c-0.6,1.7-1.1,3.3-1.7,5c-1.8-0.7-4.1-0.8-5.2-2.1c-4.2-5-2.4-10.8,2.4-15.7c3.4-3.5,5.1-8.6,7.6-13.1c-1.6-1.5-3.6-0.8-5.4-0.2
		c-0.4-3.2-0.7-6.5-1.2-10.4c1.3-1,3.5-2.6,5.7-4.3c-6.5-14-20.3-16-29.9-4.5C-3.3,120.3-2.6,162,31.2,165.2
		c12.3,0.9,24-6.6,27.9-20.5c3.3-11.9,10.2-20.2,19.3-27.3c7-5.4,10.5-12.5,9.3-21.3c-0.5-3.5-1.7-9.1-3.8-9.8
		C76.1,83.6,81.4,78.9,81.5,74.8z"/>
	<path class="st0" d="M102.6,166.4c2.8-6.7,1.2-15.4,11.4-15.2c-0.9-9.1,2.3-11.8,15.2-12.7c7.7-0.5,12.8,3.5,12.4,11.4
		c-0.9,10.5-3.3,20.8-6.5,30.9c16.7,8.5,29.8-8.4,46.6-5.2c-4.8,6.4-7.6,13-15.8,14.6c-2.8,0.8-6.2,6.6-9.6,6.9
		c-8.2,0.3-16.4,0-24.6,0.4c-3.8,0.2-6.5-6.3-10.8-1.7c-5-8.3-2-15.9-1.8-25.1C112.8,169.1,108.2,167.9,102.6,166.4z"/>
	<path class="st0" d="M169.6,105.7c5.6-7.1,10.1-12.8,15.1-19.1c6.3,12.7-0.9,22.1-3.5,31.9c-1.4,5.6-10.9,8-16.2,5.3
		c-5.4-3.8-11.2-7.4-16.6-11c1.8-5.2,3.5-10,5.3-15.2C158.4,100.8,164.8,104.2,169.6,105.7z"/>
</g>
</svg>
