<?xml version="1.0" standalone="no"?>
<!DOCTYPE svg PUBLIC "-//W3C//DTD SVG 20010904//EN"
 "http://www.w3.org/TR/2001/REC-SVG-20010904/DTD/svg10.dtd">
<svg version="1.0" xmlns="http://www.w3.org/2000/svg"
 width="700.000000pt" height="700.000000pt" viewBox="0 0 700.000000 700.000000"
 preserveAspectRatio="xMidYMid meet">
<metadata>
Created by potrace 1.14, written by Peter Selinger 2001-2017
</metadata>
<g transform="translate(0.000000,700.000000) scale(0.100000,-0.100000)"
fill="#000000" stroke="none">
<path d="M3280 6994 c-19 -2 -84 -9 -145 -14 -578 -56 -1180 -283 -1660 -625
-236 -169 -527 -443 -709 -670 -414 -516 -673 -1147 -748 -1820 -17 -155 -17
-575 0 -730 77 -690 347 -1333 780 -1859 107 -130 318 -342 452 -455 535 -450
1164 -718 1885 -803 145 -17 576 -17 730 0 511 57 1005 222 1431 479 252 152
436 295 652 507 588 577 936 1294 1034 2131 16 145 17 588 0 730 -86 723 -352
1348 -803 1885 -121 144 -350 368 -494 483 -509 408 -1117 662 -1775 743 -117
15 -553 27 -630 18z m3131 -1963 c47 -47 33 -132 -26 -159 -20 -9 -619 -12
-2568 -12 l-2543 0 -417 -1087 c-454 -1182 -437 -1143 -513 -1143 -51 0 -94
45 -94 97 1 52 856 2275 889 2309 l23 24 2610 0 2610 0 29 -29z m-4660 -928
c9 -10 83 -155 163 -323 l146 -305 2351 -5 2351 -5 30 -34 c26 -29 30 -39 25
-75 -4 -27 -15 -49 -32 -63 l-26 -23 -2670 0 -2671 0 -29 29 c-20 21 -29 39
-29 63 0 18 52 186 115 373 100 294 120 344 147 369 26 24 37 27 71 23 22 -3
48 -14 58 -24z m627 -1337 c22 -11 144 -241 650 -1224 464 -903 622 -1218 622
-1243 -1 -90 -114 -130 -172 -60 -13 15 -291 548 -618 1184 l-594 1157 -477 0
-477 0 -20 -57 c-11 -32 -88 -258 -171 -503 -83 -245 -156 -455 -162 -466 -25
-48 -100 -62 -147 -27 -60 44 -61 37 143 638 103 303 193 560 201 573 9 13 25
27 37 32 12 5 278 9 590 9 468 1 573 -1 595 -13z"/>
<path d="M1650 3618 c-25 -72 -46 -135 -48 -140 -2 -4 50 -8 116 -8 l121 0
-67 140 c-37 77 -69 140 -72 140 -3 0 -25 -59 -50 -132z"/>
</g>
</svg>
