<?xml version="1.0" encoding="utf-8"?>
<!-- Generator: Adobe Illustrator 26.5.0, SVG Export Plug-In . SVG Version: 6.00 Build 0)  -->
<svg version="1.1" id="Layer_1" xmlns="http://www.w3.org/2000/svg" xmlns:xlink="http://www.w3.org/1999/xlink" x="0px" y="0px"
	 viewBox="0 0 225.3 253.1" style="enable-background:new 0 0 225.3 253.1;" xml:space="preserve">
<style type="text/css">
	.st0{fill:#111111;}
</style>
<g>
	<g id="XMLID_00000047028906288612311280000011550488821853689269_">
		<g>
			<path class="st0" d="M140.9,92.8l77.6-91.4c2.9-3.4,8.3,0.1,6.3,4.1l-88.1,180.1c-9.8,20.1-38.4,20.1-48.2,0L0.4,5.6
				c-2-4,3.4-7.5,6.3-4.1l77.6,91.4C99.1,110.3,126.1,110.3,140.9,92.8z M152.1,194c-7.4,15.2-22.6,24.7-39.5,24.7
				s-32.1-9.4-39.5-24.7L18.5,82.5c-32,36.7,11.9,170.6,94.1,170.6s126.1-133.9,94.1-170.6L152.1,194z M112.6,6.2
				c-19.4,0-35.1,15.7-35.1,35.1s15.7,35.1,35.1,35.1s35.1-15.7,35.1-35.1S132,6.2,112.6,6.2z"/>
		</g>
	</g>
</g>
</svg>
